<svg width="922" height="384" viewBox="0 0 922 384" fill="none" xmlns="http://www.w3.org/2000/svg">
<path d="M357.258 124.175C367.078 121.963 377.727 129.784 379.119 139.65C380.799 151.555 369.782 160.7 360.861 166.337C351.045 172.54 340.395 178.081 334.99 188.925C330.319 198.296 329.642 209.707 333.483 219.484C340.918 238.408 362.171 244.921 376.275 257.564C379.724 260.655 382.784 264.176 385 268.261C387.908 273.623 389.099 279.741 388.824 285.811C388.266 298.167 381.578 309.195 372.498 317.263C363.148 325.572 350.382 329.755 342.474 339.713C339.082 343.983 336.514 349.382 336.896 354.961C337.228 359.789 339.623 364.547 343.573 367.408C345.498 368.801 347.716 369.582 350.081 369.754C351.525 369.86 351.518 367.609 350.081 367.504C344.928 367.128 341.097 362.754 339.713 358.028C338.102 352.526 340.072 346.864 343.287 342.343C346.95 337.192 352.218 333.545 357.518 330.255C362.89 326.922 368.352 323.77 373.177 319.649C382.216 311.928 389.117 301.43 390.734 289.495C391.555 283.442 391.053 277.147 388.893 271.408C387.159 266.799 384.416 262.673 381.06 259.087C374.479 252.057 365.987 247.182 358.007 241.948C350.021 236.711 341.852 230.814 337.213 222.222C332.131 212.807 331.975 200.903 336.389 191.202C338.752 186.008 342.365 181.725 346.811 178.181C351.654 174.321 357.141 171.37 362.351 168.055C371.425 162.282 381.173 153.842 381.5 142.205C381.778 132.345 373.416 123.431 363.911 121.821C361.487 121.41 359.059 121.465 356.66 122.005C355.248 122.323 355.845 124.493 357.258 124.175Z" fill="#3F3D56"/>
<path d="M594.742 125.175C584.922 122.963 574.273 130.784 572.881 140.65C571.201 152.555 582.218 161.7 591.139 167.337C600.955 173.54 611.605 179.081 617.01 189.925C621.681 199.296 622.358 210.707 618.517 220.484C611.083 239.408 589.829 245.921 575.725 258.564C572.276 261.655 569.216 265.176 567 269.261C564.092 274.623 562.902 280.741 563.176 286.811C563.734 299.167 570.422 310.195 579.502 318.263C588.853 326.572 601.618 330.755 609.526 340.713C612.918 344.983 615.486 350.382 615.104 355.961C614.772 360.789 612.377 365.547 608.427 368.408C606.502 369.801 604.284 370.582 601.919 370.754C600.475 370.86 600.482 368.609 601.919 368.504C607.072 368.128 610.903 363.754 612.287 359.028C613.898 353.526 611.928 347.864 608.713 343.343C605.05 338.192 599.782 334.545 594.482 331.255C589.11 327.922 583.648 324.77 578.823 320.649C569.784 312.928 562.884 302.43 561.266 290.495C560.445 284.442 560.947 278.147 563.107 272.408C564.841 267.799 567.584 263.673 570.94 260.087C577.521 253.057 586.013 248.182 593.994 242.948C601.979 237.711 610.148 231.814 614.787 223.222C619.87 213.807 620.025 201.903 615.611 192.202C613.248 187.008 609.635 182.725 605.189 179.181C600.346 175.321 594.86 172.37 589.649 169.055C580.575 163.282 570.827 154.842 570.5 143.205C570.222 133.345 578.584 124.431 588.089 122.821C590.513 122.41 592.941 122.465 595.34 123.005C596.752 123.323 596.155 125.493 594.742 125.175Z" fill="#3F3D56"/>
<path d="M753 60.5826L748.361 92.3614L723 92.8897V65.1637L753 60.5826Z" fill="#FFB6B6"/>
<path opacity="0.1" d="M753 60.5826L748.767 93.3614L723.406 93.8897V66.1637L753 60.5826Z" fill="black"/>
<path d="M108.51 382.635H117.492L117.492 237.338H108.51L108.51 382.635Z" fill="#F2F2F2"/>
<path d="M144.438 382.635H153.42L153.42 237.338H144.438L144.438 382.635Z" fill="#F2F2F2"/>
<path d="M200.444 382.635H209.426L209.426 237.338H200.444L200.444 382.635Z" fill="#F2F2F2"/>
<path d="M217.351 382.635H226.333L226.333 237.338H217.351L217.351 382.635Z" fill="#F2F2F2"/>
<path d="M103.755 235.224L91.532 171.745C89.2849 160.074 97.3994 148.944 109.198 147.514L174.554 139.592C174.554 139.592 183.536 213.034 183.536 209.335C183.536 205.637 272.564 218.581 239.277 237.074C205.991 255.566 116.171 250.282 103.755 235.224Z" fill="#F2F2F2"/>
<path d="M249.345 343.56L260.414 354.628L275.698 362.534L274.117 376.238L245.129 373.075L241.44 365.697L242.494 359.372L240.385 349.358L249.345 343.56Z" fill="#A0616A"/>
<path d="M272.009 370.967L272.914 359.339L304.159 374.129C304.159 374.129 306.579 380.981 299.044 382.035C291.51 383.089 241.44 383.089 241.44 380.454C241.44 377.819 240.07 364.327 240.07 364.327L270.428 373.075L272.009 370.967Z" fill="#2F2E41"/>
<path d="M209.536 312.817L201.531 326.268L197.627 343.028L183.956 344.866L179.891 315.99L186.135 310.599L192.525 310.065L201.713 305.559L209.536 312.817Z" fill="#A0616A"/>
<path d="M188.546 341.526L200.039 339.543L193.389 373.466C193.389 373.466 187.343 377.497 184.468 370.453C181.593 363.41 169.277 314.878 171.831 314.229C174.386 313.581 187.126 308.935 187.126 308.935L186.114 340.512L188.546 341.526Z" fill="#2F2E41"/>
<path d="M174.818 61.1318L173.233 93.3614L198.594 93.8898V66.1637L174.818 61.1318Z" fill="#A0616A"/>
<path opacity="0.1" d="M174.818 61.1318L173.233 93.3614L198.594 93.8898V66.1637L174.818 61.1318Z" fill="black"/>
<path d="M132.022 194.277C132.022 194.277 120.398 224.393 128.852 236.545C137.305 248.697 176.932 255.566 176.932 255.566L193.311 270.888L236.636 354.368L261.997 348.556L226.069 262.963C226.069 262.963 204.935 228.62 197.009 223.865C189.084 219.11 174.327 201.256 174.327 201.256L132.022 194.277Z" fill="#2F2E41"/>
<path d="M203.878 196.919L220.153 208.445C220.153 208.445 277.847 223.865 259.355 259.793C240.863 295.721 213.388 321.61 213.388 321.61L189.084 307.873L228.182 252.924L159.496 211.184L203.878 196.919Z" fill="#2F2E41"/>
<path d="M351.812 153.107C359.46 154.646 364.865 159.839 363.885 164.706C362.905 169.573 355.911 172.27 348.261 170.73C345.196 170.157 342.313 168.858 339.854 166.942L307.531 160.012L310.303 147.237L342.591 153.348C345.601 152.532 348.763 152.449 351.812 153.107Z" fill="#A0616A"/>
<path d="M229.756 235.661C235.346 241.103 237.069 248.398 233.605 251.955C230.142 255.512 222.803 253.983 217.212 248.538C214.949 246.394 213.232 243.739 212.205 240.795L188.812 217.439L198.071 208.211L221.88 230.861C224.851 231.809 227.552 233.455 229.756 235.661Z" fill="#A0616A"/>
<path d="M197.273 82.0018H164.395L140.211 98.3808L142.325 162.84C142.325 162.84 146.744 179.027 131.758 194.013C122.776 202.995 125.946 208.278 125.946 208.278L179.309 212.505L211.275 203.259L199.651 174.2L201.764 165.218C201.764 165.218 223.427 149.895 219.728 134.045C216.03 118.194 211.275 85.4361 211.275 85.4361L197.273 82.0018Z" fill="#CCCCCC"/>
<path d="M174.29 176.841L150.514 98.6449C150.514 98.6449 138.362 94.4181 133.078 104.985C127.795 115.552 134.441 155.971 134.441 155.971L162.138 201.674L206.52 235.489L217.615 223.336L174.29 176.841Z" fill="#CCCCCC"/>
<path d="M274.627 136.512L210.849 85.4002C210.849 85.4002 198.433 88.7736 200.039 100.478C201.646 112.183 229.954 141.789 229.954 141.789L278.62 163.868L334.343 166.715L336.638 150.421L274.627 136.512Z" fill="#CCCCCC"/>
<path d="M189.876 76.1899C202.132 76.1899 212.067 66.2547 212.067 53.9991C212.067 41.7434 202.132 31.8082 189.876 31.8082C177.621 31.8082 167.686 41.7434 167.686 53.9991C167.686 66.2547 177.621 76.1899 189.876 76.1899Z" fill="#A0616A"/>
<path d="M813.49 237.338H804.508V382.635H813.49V237.338Z" fill="#F2F2F2"/>
<path d="M777.562 237.338H768.58V382.635H777.562V237.338Z" fill="#F2F2F2"/>
<path d="M721.557 237.338H712.574V382.635H721.557V237.338Z" fill="#F2F2F2"/>
<path d="M704.649 237.338H695.667V382.635H704.649V237.338Z" fill="#F2F2F2"/>
<path d="M818.245 235.224L830.468 171.745C832.715 160.074 824.601 148.944 812.802 147.514L747.446 139.592C747.446 139.592 738.464 213.034 738.464 209.335C738.464 205.637 649.436 218.581 682.723 237.074C716.009 255.566 805.829 250.282 818.245 235.224Z" fill="#F2F2F2"/>
<path d="M672.654 343.56L661.586 354.628L646.302 362.534L647.883 376.238L676.871 373.075L680.56 365.697L679.506 359.372L681.614 349.358L672.654 343.56Z" fill="#FFB6B6"/>
<path d="M649.991 370.967L649.086 359.339L617.841 374.129C617.841 374.129 615.421 380.981 622.956 382.035C630.49 383.089 680.56 383.089 680.56 380.454C680.56 377.819 681.93 364.327 681.93 364.327L651.572 373.075L649.991 370.967Z" fill="#2F2E41"/>
<path d="M646.47 269.559L639.957 283.792L628.389 296.533L634.65 308.824L660.715 295.751L661.6 287.548L658.406 281.988L656.889 271.868L646.47 269.559Z" fill="#FFB6B6"/>
<path d="M634.788 303.149L629.884 292.567L605.759 317.326C605.759 317.326 605.881 324.591 613.31 322.951C620.739 321.311 667.666 303.849 666.746 301.379C665.827 298.91 662.406 285.787 662.406 285.787L637.005 304.574L634.788 303.149Z" fill="#2F2E41"/>
<path d="M789.978 194.277C789.978 194.277 801.602 224.393 793.149 236.545C784.695 248.697 745.068 255.566 745.068 255.566L728.689 270.888L685.364 354.368L660.003 348.556L695.931 262.963C695.931 262.963 717.066 228.62 724.991 223.865C732.916 219.11 747.674 201.256 747.674 201.256L789.978 194.277Z" fill="#2F2E41"/>
<path d="M745.03 208.318L726.294 201.482C726.294 201.482 680.806 162.788 661.765 198.428C642.723 234.068 637.047 271.39 637.047 271.39L662.166 283.573L685.139 220.167L758.528 252.938L745.03 208.318Z" fill="#2F2E41"/>
<path d="M639.405 228.289C634.383 234.259 633.392 241.689 637.192 244.885C640.992 248.08 648.142 245.831 653.165 239.858C655.205 237.499 656.649 234.687 657.379 231.656L678.338 206.092L668.208 197.83L646.766 222.731C643.904 223.969 641.379 225.875 639.405 228.289Z" fill="#FFB6B6"/>
<path d="M692.244 235.661C686.654 241.103 684.93 248.398 688.394 251.955C691.858 255.512 699.196 253.983 704.788 248.538C707.051 246.394 708.768 243.739 709.795 240.795L733.188 217.439L723.928 208.211L700.12 230.861C697.149 231.809 694.448 233.455 692.244 235.661Z" fill="#FFB6B6"/>
<path d="M724.727 82.0018H757.605L781.789 98.3808L779.675 162.84C779.675 162.84 775.256 179.027 790.242 194.013C799.224 202.995 796.054 208.278 796.054 208.278L742.691 212.505L710.725 203.259L722.349 174.2L720.236 165.218C720.236 165.218 698.573 149.895 702.272 134.045C705.97 118.194 710.725 85.4361 710.725 85.4361L724.727 82.0018Z" fill="#13B882"/>
<path d="M747.71 176.841L771.486 98.6449C771.486 98.6449 783.638 94.4181 788.922 104.985C794.205 115.552 787.559 155.971 787.559 155.971L759.862 201.674L715.48 235.489L704.385 223.336L747.71 176.841Z" fill="#13B882"/>
<path d="M689.424 167.207L707.447 87.4877C707.447 87.4877 719.259 82.3877 725.297 92.5423C731.336 102.697 727.649 143.492 727.649 143.492L703.351 191.089L661.548 228.044L649.598 216.732L689.424 167.207Z" fill="#13B882"/>
<path d="M356 125.583H349V381.583H356V125.583Z" fill="#3F3D56"/>
<path d="M350.698 161.165L287.198 109.18L288.802 107.985L352.302 159.969L350.698 161.165Z" fill="#3F3D56"/>
<path d="M354 130.083H350C343.107 130.083 337.5 124.475 337.5 117.583V83.5826C337.5 76.6901 343.107 71.0826 350 71.0826H354C360.893 71.0826 366.5 76.6901 366.5 83.5826V117.583C366.5 124.475 360.893 130.083 354 130.083Z" fill="#13B882"/>
<path d="M286.5 127.583C296.717 127.583 305 113.927 305 97.0826C305 80.238 296.717 66.5826 286.5 66.5826C276.283 66.5826 268 80.238 268 97.0826C268 113.927 276.283 127.583 286.5 127.583Z" fill="#13B882"/>
<path d="M353 114.583C342.278 114.583 322 113.12 322 107.583C322 104.864 326.812 102.847 336.301 101.589L336.563 103.571C326.308 104.932 324 106.974 324 107.583C324 109.28 334.236 112.583 353 112.583C371.764 112.583 382 109.28 382 107.583C382 106.728 378.469 104.566 367.554 103.341L367.777 101.353C375.178 102.184 384 103.939 384 107.583C384 113.12 363.722 114.583 353 114.583Z" fill="#3F3D56"/>
<path d="M594 381.583H601V125.583H594V381.583Z" fill="#3F3D56"/>
<path d="M599.302 161.165L662.802 109.18L661.198 107.985L597.698 159.969L599.302 161.165Z" fill="#3F3D56"/>
<path d="M583.5 117.583V83.5826C583.5 76.6901 589.107 71.0826 596 71.0826H600C606.893 71.0826 612.5 76.6901 612.5 83.5826V117.583C612.5 124.475 606.893 130.083 600 130.083H596C589.107 130.083 583.5 124.475 583.5 117.583Z" fill="#13B882"/>
<path d="M663.5 127.583C673.717 127.583 682 113.927 682 97.0826C682 80.238 673.717 66.5826 663.5 66.5826C653.283 66.5826 645 80.238 645 97.0826C645 113.927 653.283 127.583 663.5 127.583Z" fill="#13B882"/>
<path d="M597 114.583C586.278 114.583 566 113.12 566 107.583C566 103.939 574.822 102.184 582.223 101.353L582.446 103.341C571.531 104.566 568 106.728 568 107.583C568 109.28 578.236 112.583 597 112.583C615.764 112.583 626 109.28 626 107.583C626 106.974 623.692 104.932 613.437 103.571L613.699 101.589C623.188 102.847 628 104.864 628 107.583C628 113.12 607.722 114.583 597 114.583Z" fill="#3F3D56"/>
<path d="M736.024 73.3947C749.072 73.3947 759.649 62.8175 759.649 49.7699C759.649 36.7223 749.072 26.1451 736.024 26.1451C722.977 26.1451 712.399 36.7223 712.399 49.7699C712.399 62.8175 722.977 73.3947 736.024 73.3947Z" fill="#FFB6B6"/>
<path d="M737.91 18.008C737.226 18.4071 736.31 17.8033 736.091 17.0427C735.872 16.2821 736.127 15.4746 736.381 14.7246L737.655 10.9492C738.559 8.27158 739.519 5.5004 741.477 3.46239C744.432 0.386339 749.128 -0.3962 753.356 0.170719C758.785 0.89875 764.142 3.83862 766.666 8.70007C769.191 13.5615 768.116 20.345 763.555 23.378C770.056 30.8294 772.322 39.1336 771.964 49.0159C771.606 58.8981 760.837 67.993 753.814 74.9547C752.246 74.004 750.82 69.5485 751.682 67.9299C752.545 66.3114 751.309 64.4362 752.377 62.9453C753.445 61.4544 754.339 63.8284 753.259 62.346C752.578 61.4105 755.237 59.2585 754.224 58.6986C749.325 55.9906 747.696 49.8842 744.619 45.208C740.908 39.5677 734.556 35.7481 727.834 35.1144C724.131 34.7653 720.22 35.3976 717.185 37.5473C714.149 39.697 712.184 43.5386 712.888 47.1907C711.065 45.3399 710.158 42.6276 710.5 40.0526C710.843 37.4776 712.427 35.0964 714.67 33.7859C713.306 29.276 714.474 24.0882 717.64 20.5982C720.805 17.1083 733.646 17.7027 738.267 18.6212" fill="#2F2E41"/>
<path d="M738.627 35.2513C744.748 35.912 749.167 41.2139 752.899 46.1102C755.05 48.9323 757.303 52.0489 757.249 55.5968C757.194 59.1839 754.796 62.2605 753.65 65.66C751.776 71.2164 753.602 77.8274 758.062 81.6346C753.655 82.4709 748.892 79.1667 748.131 74.7463C747.245 69.6005 751.146 64.634 750.684 59.4329C750.277 54.8508 746.666 51.3243 743.596 47.8982C740.526 44.4721 737.643 39.9258 739.056 35.5478" fill="#2F2E41"/>
<path d="M178.501 16.8481C178.501 16.8481 169.606 10.4236 161.699 24.261C156.298 33.713 153.433 51.6969 152.16 62.1465C151.574 66.9558 154.067 71.6134 158.388 73.8044L186.408 88.0119C186.408 88.0119 176.03 48.4764 190.362 42.5461C204.694 36.6158 204.199 38.0984 204.199 38.0984C204.199 38.0984 215.566 62.808 200.74 73.6803L213.095 81.5874C213.095 81.5874 221.496 35.1332 206.176 26.2377C190.856 17.3423 194.316 10.9178 178.501 16.8481Z" fill="#2F2E41"/>
</svg>
