<svg width="269" height="34" viewBox="0 0 269 34" fill="none" xmlns="http://www.w3.org/2000/svg">
<g clip-path="url(#clip0_5_311)">
<path d="M29.697 0V33.6169H21.3447V19.7775H8.35228V33.6169H0V0H8.35228V13.169H21.3447V0H29.697Z" fill="#3B5054"/>
<path d="M61.4183 19.8254C61.4183 20.5916 61.3695 21.3897 61.2718 22.2197H42.3693C42.4995 23.8798 43.0368 25.1568 43.9811 26.0507C44.958 26.9127 46.1465 27.3437 47.5467 27.3437C49.6307 27.3437 51.0797 26.4817 51.8938 24.7577H60.7834C60.3275 26.5136 59.4971 28.0939 58.2923 29.4986C57.1201 30.9033 55.6385 32.0047 53.8475 32.8028C52.0566 33.6009 50.054 34 47.8398 34C45.1696 34 42.7926 33.4413 40.7086 32.3239C38.6246 31.2066 36.9965 29.6103 35.8242 27.5352C34.652 25.4601 34.0658 23.0338 34.0658 20.2563C34.0658 17.4789 34.6357 15.0526 35.7754 12.9775C36.9476 10.9023 38.5757 9.3061 40.6597 8.18873C42.7437 7.07136 45.1371 6.51267 47.8398 6.51267C50.4773 6.51267 52.8218 7.0554 54.8733 8.14085C56.9247 9.22629 58.5203 10.7746 59.66 12.7859C60.8322 14.7972 61.4183 17.1437 61.4183 19.8254ZM52.8707 17.6704C52.8707 16.2657 52.3822 15.1484 51.4054 14.3183C50.4285 13.4883 49.2074 13.0732 47.7421 13.0732C46.3419 13.0732 45.1534 13.4723 44.1765 14.2704C43.2322 15.0685 42.6461 16.2019 42.4181 17.6704H52.8707Z" fill="#3B5054"/>
<path d="M81.943 33.6169L76.7167 26.1944L72.3208 33.6169H63.2847L72.2719 19.969L63.0405 6.89577H72.4185L77.6447 14.2704L82.0407 6.89577H91.0768L81.943 20.3521L91.321 33.6169H81.943Z" fill="#3B5054"/>
<path d="M92.8786 20.2085C92.8786 17.4629 93.3996 15.0526 94.4416 12.9775C95.5162 10.9023 96.9652 9.3061 98.7887 8.18873C100.612 7.07136 102.647 6.51267 104.894 6.51267C106.815 6.51267 108.492 6.89577 109.925 7.66197C111.39 8.42817 112.514 9.4338 113.295 10.6789V6.89577H121.648V33.6169H113.295V29.8338C112.481 31.0789 111.342 32.0845 109.876 32.8507C108.444 33.6169 106.767 34 104.845 34C102.631 34 100.612 33.4413 98.7887 32.3239C96.9652 31.1746 95.5162 29.5624 94.4416 27.4873C93.3996 25.3803 92.8786 22.954 92.8786 20.2085ZM113.295 20.2563C113.295 18.2131 112.709 16.6009 111.537 15.4197C110.397 14.2385 108.997 13.6479 107.336 13.6479C105.676 13.6479 104.259 14.2385 103.087 15.4197C101.947 16.569 101.377 18.1653 101.377 20.2085C101.377 22.2516 101.947 23.8798 103.087 25.093C104.259 26.2742 105.676 26.8648 107.336 26.8648C108.997 26.8648 110.397 26.2742 111.537 25.093C112.709 23.9117 113.295 22.2995 113.295 20.2563Z" fill="#3B5054"/>
<path d="M148.449 16.3775C150.435 16.7925 152.031 17.7662 153.235 19.2986C154.44 20.7991 155.043 22.523 155.043 24.4704C155.043 27.2798 154.033 29.5146 152.014 31.1746C150.028 32.8028 147.244 33.6169 143.662 33.6169H127.69V0H143.125C146.609 0 149.328 0.782159 151.282 2.34648C153.268 3.9108 154.261 6.0338 154.261 8.71549C154.261 10.6948 153.724 12.339 152.649 13.6479C151.607 14.9568 150.207 15.8667 148.449 16.3775ZM136.042 13.6H141.513C142.881 13.6 143.923 13.3127 144.639 12.738C145.388 12.1315 145.762 11.2535 145.762 10.1042C145.762 8.95493 145.388 8.077 144.639 7.47042C143.923 6.86385 142.881 6.56056 141.513 6.56056H136.042V13.6ZM142.197 27.0084C143.597 27.0084 144.671 26.7052 145.42 26.0986C146.202 25.4601 146.593 24.5502 146.593 23.369C146.593 22.1878 146.186 21.262 145.372 20.5915C144.59 19.9211 143.499 19.5859 142.099 19.5859H136.042V27.0084H142.197Z" fill="#3B5054"/>
<path d="M185.579 19.8254C185.579 20.5916 185.53 21.3897 185.432 22.2197H166.53C166.66 23.8798 167.197 25.1568 168.141 26.0507C169.118 26.9127 170.307 27.3437 171.707 27.3437C173.791 27.3437 175.24 26.4817 176.054 24.7577H184.944C184.488 26.5136 183.658 28.0939 182.453 29.4986C181.28 30.9033 179.799 32.0047 178.008 32.8028C176.217 33.6009 174.214 34 172 34C169.33 34 166.953 33.4413 164.869 32.3239C162.785 31.2066 161.157 29.6103 159.985 27.5352C158.812 25.4601 158.226 23.0338 158.226 20.2563C158.226 17.4789 158.796 15.0526 159.936 12.9775C161.108 10.9023 162.736 9.3061 164.82 8.18873C166.904 7.07136 169.297 6.51267 172 6.51267C174.638 6.51267 176.982 7.0554 179.034 8.14085C181.085 9.22629 182.681 10.7746 183.82 12.7859C184.993 14.7972 185.579 17.1437 185.579 19.8254ZM177.031 17.6704C177.031 16.2657 176.543 15.1484 175.566 14.3183C174.589 13.4883 173.368 13.0732 171.902 13.0732C170.502 13.0732 169.314 13.4723 168.337 14.2704C167.393 15.0685 166.806 16.2019 166.579 17.6704H177.031Z" fill="#3B5054"/>
<path d="M188.324 20.2085C188.324 17.4629 188.845 15.0526 189.887 12.9775C190.962 10.9023 192.411 9.3061 194.234 8.18873C196.058 7.07136 198.093 6.51267 200.34 6.51267C202.261 6.51267 203.938 6.89577 205.371 7.66197C206.836 8.42817 207.959 9.4338 208.741 10.6789V6.89577H217.093V33.6169H208.741V29.8338C207.927 31.0789 206.787 32.0845 205.322 32.8507C203.889 33.6169 202.212 34 200.291 34C198.077 34 196.058 33.4413 194.234 32.3239C192.411 31.1746 190.962 29.5624 189.887 27.4873C188.845 25.3803 188.324 22.954 188.324 20.2085ZM208.741 20.2563C208.741 18.2131 208.155 16.6009 206.983 15.4197C205.843 14.2385 204.443 13.6479 202.782 13.6479C201.121 13.6479 199.705 14.2385 198.533 15.4197C197.393 16.569 196.823 18.1653 196.823 20.2085C196.823 22.2516 197.393 23.8798 198.533 25.093C199.705 26.2742 201.121 26.8648 202.782 26.8648C204.443 26.8648 205.843 26.2742 206.983 25.093C208.155 23.9117 208.741 22.2995 208.741 20.2563Z" fill="#3B5054"/>
<path d="M257.912 6.60845C261.299 6.60845 263.985 7.61408 265.972 9.62535C267.991 11.6366 269 14.43 269 18.0056V33.6169H260.697V19.107C260.697 17.3831 260.224 16.0582 259.28 15.1324C258.368 14.1746 257.098 13.6958 255.47 13.6958C253.842 13.6958 252.556 14.1746 251.612 15.1324C250.7 16.0582 250.244 17.3831 250.244 19.107V33.6169H241.941V19.107C241.941 17.3831 241.468 16.0582 240.524 15.1324C239.612 14.1746 238.342 13.6958 236.714 13.6958C235.086 13.6958 233.8 14.1746 232.856 15.1324C231.944 16.0582 231.488 17.3831 231.488 19.107V33.6169H223.136V6.89577H231.488V10.2479C232.335 9.13052 233.442 8.25258 234.809 7.61408C236.177 6.94366 237.724 6.60845 239.45 6.60845C241.501 6.60845 243.324 7.03944 244.92 7.90141C246.548 8.76338 247.818 9.99249 248.73 11.5887C249.674 10.1202 250.96 8.923 252.589 7.99718C254.217 7.07136 255.991 6.60845 257.912 6.60845Z" fill="#3B5054"/>
</g>
<defs>
<clipPath id="clip0_5_311">
<rect width="269" height="34" fill="white"/>
</clipPath>
</defs>
</svg>
