<svg width="340" height="75" viewBox="0 0 340 75" fill="none" xmlns="http://www.w3.org/2000/svg">
<g clip-path="url(#clip0_5_303)">
<path d="M100.697 28V61.6169H92.3447V47.7775H79.3523V61.6169H71V28H79.3523V41.169H92.3447V28H100.697Z" fill="#3B5054"/>
<path d="M132.418 47.8254C132.418 48.5916 132.369 49.3897 132.272 50.2197H113.369C113.5 51.8798 114.037 53.1568 114.981 54.0507C115.958 54.9127 117.147 55.3437 118.547 55.3437C120.631 55.3437 122.08 54.4817 122.894 52.7577H131.783C131.327 54.5136 130.497 56.0939 129.292 57.4986C128.12 58.9033 126.638 60.0047 124.848 60.8028C123.057 61.6009 121.054 62 118.84 62C116.17 62 113.793 61.4413 111.709 60.3239C109.625 59.2066 107.996 57.6103 106.824 55.5352C105.652 53.4601 105.066 51.0338 105.066 48.2563C105.066 45.4789 105.636 43.0526 106.775 40.9775C107.948 38.9023 109.576 37.3061 111.66 36.1887C113.744 35.0714 116.137 34.5127 118.84 34.5127C121.477 34.5127 123.822 35.0554 125.873 36.1408C127.925 37.2263 129.52 38.7746 130.66 40.7859C131.832 42.7972 132.418 45.1437 132.418 47.8254ZM123.871 45.6704C123.871 44.2657 123.382 43.1484 122.405 42.3183C121.428 41.4883 120.207 41.0732 118.742 41.0732C117.342 41.0732 116.153 41.4723 115.176 42.2704C114.232 43.0685 113.646 44.2019 113.418 45.6704H123.871Z" fill="#3B5054"/>
<path d="M152.943 61.6169L147.717 54.1944L143.321 61.6169H134.285L143.272 47.969L134.04 34.8958H143.418L148.645 42.2704L153.041 34.8958H162.077L152.943 48.3521L162.321 61.6169H152.943Z" fill="#3B5054"/>
<path d="M163.879 48.2085C163.879 45.4629 164.4 43.0526 165.442 40.9775C166.516 38.9023 167.965 37.3061 169.789 36.1887C171.612 35.0714 173.647 34.5127 175.894 34.5127C177.815 34.5127 179.492 34.8958 180.925 35.662C182.39 36.4282 183.514 37.4338 184.295 38.6789V34.8958H192.648V61.6169H184.295V57.8338C183.481 59.0789 182.342 60.0845 180.876 60.8507C179.444 61.6169 177.767 62 175.845 62C173.631 62 171.612 61.4413 169.789 60.3239C167.965 59.1746 166.516 57.5624 165.442 55.4873C164.4 53.3803 163.879 50.954 163.879 48.2085ZM184.295 48.2563C184.295 46.2131 183.709 44.6009 182.537 43.4197C181.397 42.2385 179.997 41.6479 178.336 41.6479C176.676 41.6479 175.259 42.2385 174.087 43.4197C172.947 44.569 172.377 46.1653 172.377 48.2085C172.377 50.2516 172.947 51.8798 174.087 53.093C175.259 54.2742 176.676 54.8648 178.336 54.8648C179.997 54.8648 181.397 54.2742 182.537 53.093C183.709 51.9117 184.295 50.2995 184.295 48.2563Z" fill="#3B5054"/>
<path d="M219.449 44.3775C221.435 44.7925 223.031 45.7662 224.235 47.2986C225.44 48.7991 226.043 50.523 226.043 52.4704C226.043 55.2798 225.033 57.5146 223.014 59.1746C221.028 60.8028 218.244 61.6169 214.662 61.6169H198.69V28H214.125C217.609 28 220.328 28.7822 222.282 30.3465C224.268 31.9108 225.261 34.0338 225.261 36.7155C225.261 38.6948 224.724 40.339 223.649 41.6479C222.607 42.9568 221.207 43.8667 219.449 44.3775ZM207.042 41.6H212.513C213.881 41.6 214.923 41.3127 215.639 40.738C216.388 40.1315 216.762 39.2535 216.762 38.1042C216.762 36.9549 216.388 36.077 215.639 35.4704C214.923 34.8639 213.881 34.5606 212.513 34.5606H207.042V41.6ZM213.197 55.0084C214.597 55.0084 215.671 54.7052 216.42 54.0986C217.202 53.4601 217.593 52.5502 217.593 51.369C217.593 50.1878 217.186 49.262 216.372 48.5915C215.59 47.9211 214.499 47.5859 213.099 47.5859H207.042V55.0084H213.197Z" fill="#3B5054"/>
<path d="M256.579 47.8254C256.579 48.5916 256.53 49.3897 256.432 50.2197H237.53C237.66 51.8798 238.197 53.1568 239.141 54.0507C240.118 54.9127 241.307 55.3437 242.707 55.3437C244.791 55.3437 246.24 54.4817 247.054 52.7577H255.944C255.488 54.5136 254.658 56.0939 253.453 57.4986C252.28 58.9033 250.799 60.0047 249.008 60.8028C247.217 61.6009 245.214 62 243 62C240.33 62 237.953 61.4413 235.869 60.3239C233.785 59.2066 232.157 57.6103 230.985 55.5352C229.812 53.4601 229.226 51.0338 229.226 48.2563C229.226 45.4789 229.796 43.0526 230.936 40.9775C232.108 38.9023 233.736 37.3061 235.82 36.1887C237.904 35.0714 240.297 34.5127 243 34.5127C245.638 34.5127 247.982 35.0554 250.034 36.1408C252.085 37.2263 253.681 38.7746 254.82 40.7859C255.993 42.7972 256.579 45.1437 256.579 47.8254ZM248.031 45.6704C248.031 44.2657 247.543 43.1484 246.566 42.3183C245.589 41.4883 244.368 41.0732 242.902 41.0732C241.502 41.0732 240.314 41.4723 239.337 42.2704C238.393 43.0685 237.806 44.2019 237.579 45.6704H248.031Z" fill="#3B5054"/>
<path d="M259.324 48.2085C259.324 45.4629 259.845 43.0526 260.887 40.9775C261.962 38.9023 263.411 37.3061 265.234 36.1887C267.058 35.0714 269.093 34.5127 271.34 34.5127C273.261 34.5127 274.938 34.8958 276.371 35.662C277.836 36.4282 278.959 37.4338 279.741 38.6789V34.8958H288.093V61.6169H279.741V57.8338C278.927 59.0789 277.787 60.0845 276.322 60.8507C274.889 61.6169 273.212 62 271.291 62C269.077 62 267.058 61.4413 265.234 60.3239C263.411 59.1746 261.962 57.5624 260.887 55.4873C259.845 53.3803 259.324 50.954 259.324 48.2085ZM279.741 48.2563C279.741 46.2131 279.155 44.6009 277.983 43.4197C276.843 42.2385 275.443 41.6479 273.782 41.6479C272.121 41.6479 270.705 42.2385 269.533 43.4197C268.393 44.569 267.823 46.1653 267.823 48.2085C267.823 50.2516 268.393 51.8798 269.533 53.093C270.705 54.2742 272.121 54.8648 273.782 54.8648C275.443 54.8648 276.843 54.2742 277.983 53.093C279.155 51.9117 279.741 50.2995 279.741 48.2563Z" fill="#3B5054"/>
<path d="M328.912 34.6085C332.299 34.6085 334.985 35.6141 336.972 37.6254C338.991 39.6366 340 42.43 340 46.0056V61.6169H331.697V47.107C331.697 45.3831 331.224 44.0582 330.28 43.1324C329.368 42.1746 328.098 41.6958 326.47 41.6958C324.842 41.6958 323.556 42.1746 322.612 43.1324C321.7 44.0582 321.244 45.3831 321.244 47.107V61.6169H312.941V47.107C312.941 45.3831 312.468 44.0582 311.524 43.1324C310.612 42.1746 309.342 41.6958 307.714 41.6958C306.086 41.6958 304.8 42.1746 303.856 43.1324C302.944 44.0582 302.488 45.3831 302.488 47.107V61.6169H294.136V34.8958H302.488V38.2479C303.335 37.1305 304.442 36.2526 305.809 35.6141C307.177 34.9437 308.724 34.6085 310.45 34.6085C312.501 34.6085 314.324 35.0394 315.92 35.9014C317.548 36.7634 318.818 37.9925 319.73 39.5887C320.674 38.1202 321.96 36.923 323.589 35.9972C325.217 35.0714 326.991 34.6085 328.912 34.6085Z" fill="#3B5054"/>
<path d="M1.35997e-05 51.388L0 74.0699L44.5034 48.3759V25.694L24.8603 37.0349L1.35997e-05 51.388Z" fill="#54E5AD"/>
<path d="M44.5034 25.694L0 0L1.35997e-05 22.6819L24.8603 37.0349L44.5034 25.694Z" fill="#10B982"/>
<path d="M24.8604 37.0349L44.5034 48.3759V25.694L24.8604 37.0349Z" fill="#33D69A"/>
<path d="M44.5034 73.9826L27.6665 64.1611L44.5034 54.3395V73.9826Z" fill="#10B982"/>
</g>
<defs>
<clipPath id="clip0_5_303">
<rect width="340" height="75" fill="white"/>
</clipPath>
</defs>
</svg>
